<?xml version="1.0" encoding="UTF-8"?>
<svg width="16px" height="34px" viewBox="0 0 16 34" version="1.1" xmlns="http://www.w3.org/2000/svg" xmlns:xlink="http://www.w3.org/1999/xlink">
    <!-- Generator: Sketch 61.2 (89653) - https://sketch.com -->
    <title>women</title>
    <desc>Created with Sketch.</desc>
    <g id="DASHBOARD" stroke="none" stroke-width="1" fill="none" fill-rule="evenodd">
        <g id="00_Dashboard_DE" transform="translate(-527.000000, -1372.000000)" fill="#BD5EE6">
            <g id="Employees" transform="translate(288.000000, 1200.000000)">
                <g id="Group-3" transform="translate(164.000000, 94.000000)">
                    <g id="icons" transform="translate(75.200000, 78.092308)">
                        <path d="M7.66797853,8.4078712 C9.11413238,8.4078712 10.3921288,9.33273703 10.8629696,10.7116279 L10.8629696,10.7116279 L15.1341682,23.5420394 L10.0894454,23.5420394 L10.0894454,33.6314848 L5.04472272,33.6314848 L5.04472272,23.5420394 L0,23.5420394 L4.27119857,10.7116279 C4.72522361,9.33273703 6.02003578,8.4078712 7.46618962,8.4078712 L7.46618962,8.4078712 Z M7.56708408,0 C9.43363148,0 10.9302326,1.49660107 10.9302326,3.36314848 C10.9302326,5.22969589 9.43363148,6.72629696 7.56708408,6.72629696 C5.70053667,6.72629696 4.2039356,5.22969589 4.2039356,3.36314848 C4.2039356,1.49660107 5.70053667,0 7.56708408,0 Z" id="women"></path>
                    </g>
                </g>
            </g>
        </g>
    </g>
</svg>